<svg width="571" height="130" viewBox="0 0 571 130" version="1.1" xmlns="http://www.w3.org/2000/svg" xmlns:xlink="http://www.w3.org/1999/xlink">
<title>BigBinary</title>
<desc>Created using Figma</desc>
<g id="Canvas" transform="translate(-1547 -1885)">
<g id="BigBinary">
<use xlink:href="#path0_fill" transform="translate(1537 1854)" fill="#0F82E6"/>
</g>
</g>
<defs>
<path id="path0_fill" d="M 10.5273 131L 52.5 131C 60.3385 131 66.8783 128.38 72.1191 123.139C 77.4056 118.126 80.0944 111.312 80.1855 102.699C 80.1855 97.5039 78.8867 92.696 76.2891 88.2754C 73.5091 83.9915 69.4076 81.1432 63.9844 79.7305L 63.9844 79.457C 66.8555 78.0898 69.2708 76.5632 71.2305 74.877C 73.1901 73.2819 74.694 71.5957 75.7422 69.8184C 77.793 66.0814 78.7728 62.1621 78.6816 58.0605C 78.6816 50.0397 76.1979 43.5911 71.2305 38.7148C 66.3086 33.8841 58.9486 31.4232 49.1504 31.332L 10.5273 31.332L 10.5273 131ZM 48.877 86.7715C 54.4824 86.8626 58.584 88.3438 61.1816 91.2148C 63.7793 94.1315 65.0781 97.6406 65.0781 101.742C 65.0781 105.753 63.7793 109.216 61.1816 112.133C 58.584 115.095 54.4824 116.622 48.877 116.713L 25.6348 116.713L 25.6348 86.7715L 48.877 86.7715ZM 47.4414 44.7988C 52.9557 44.89 57.0117 46.2344 59.6094 48.832C 62.2526 51.612 63.5742 55.0072 63.5742 59.0176C 63.5742 63.028 62.2526 66.3548 59.6094 68.998C 57.0117 71.8691 52.9557 73.3047 47.4414 73.3047L 25.6348 73.3047L 25.6348 44.7988L 47.4414 44.7988ZM 95.0879 131L 109.375 131L 109.375 60.043L 95.0879 60.043L 95.0879 131ZM 95.0879 45.6191L 109.375 45.6191L 109.375 31.332L 95.0879 31.332L 95.0879 45.6191ZM 168.232 123.549L 168.232 130.863C 168.141 135.694 166.637 139.477 163.721 142.211C 160.758 144.9 156.839 146.244 151.963 146.244C 149.365 146.153 146.859 145.447 144.443 144.125C 142.074 142.94 139.977 141.505 138.154 139.818L 127.08 148.637C 133.87 156.384 142.074 160.349 151.689 160.531C 160.075 160.531 167.275 157.956 173.291 152.807C 179.261 147.794 182.337 139.955 182.52 129.291L 182.52 60.043L 168.232 60.043L 168.232 67.5625C 163.083 61.957 156.976 59.1543 149.912 59.1543C 145.309 59.2454 141.481 60.1341 138.428 61.8203C 135.238 63.5977 132.799 65.6029 131.113 67.8359C 129.245 70.1146 127.9 72.9173 127.08 76.2441C 126.214 79.6165 125.781 86.0651 125.781 95.5898C 125.781 104.932 126.214 111.267 127.08 114.594C 127.9 117.966 129.245 120.814 131.113 123.139C 132.799 125.189 135.238 127.104 138.428 128.881C 141.481 130.749 145.309 131.729 149.912 131.82C 157.432 131.638 163.538 128.881 168.232 123.549ZM 140.068 95.5898C 140.068 90.0755 140.251 86.2474 140.615 84.1055C 140.934 81.9635 141.686 80.2318 142.871 78.9102C 143.828 77.6341 145.286 76.3809 147.246 75.1504C 149.115 74.1022 151.439 73.5326 154.219 73.4414C 156.999 73.5326 159.323 74.1022 161.191 75.1504C 163.06 76.3809 164.473 77.6341 165.43 78.9102C 166.615 80.2318 167.412 81.9635 167.822 84.1055C 168.096 86.2474 168.232 90.0755 168.232 95.5898C 168.232 101.013 168.096 104.75 167.822 106.801C 167.412 108.943 166.615 110.72 165.43 112.133C 164.473 113.409 163.06 114.571 161.191 115.619C 159.323 116.895 156.999 117.533 154.219 117.533C 151.439 117.533 149.115 116.895 147.246 115.619C 145.286 114.571 143.828 113.409 142.871 112.133C 141.686 110.72 140.934 108.943 140.615 106.801C 140.251 104.75 140.068 101.013 140.068 95.5898ZM 202.344 131L 244.316 131C 252.155 131 258.695 128.38 263.936 123.139C 269.222 118.126 271.911 111.312 272.002 102.699C 272.002 97.5039 270.703 92.696 268.105 88.2754C 265.326 83.9915 261.224 81.1432 255.801 79.7305L 255.801 79.457C 258.672 78.0898 261.087 76.5632 263.047 74.877C 265.007 73.2819 266.51 71.5957 267.559 69.8184C 269.609 66.0814 270.589 62.1621 270.498 58.0605C 270.498 50.0397 268.014 43.5911 263.047 38.7148C 258.125 33.8841 250.765 31.4232 240.967 31.332L 202.344 31.332L 202.344 131ZM 240.693 86.7715C 246.299 86.8626 250.4 88.3438 252.998 91.2148C 255.596 94.1315 256.895 97.6406 256.895 101.742C 256.895 105.753 255.596 109.216 252.998 112.133C 250.4 115.095 246.299 116.622 240.693 116.713L 217.451 116.713L 217.451 86.7715L 240.693 86.7715ZM 239.258 44.7988C 244.772 44.89 248.828 46.2344 251.426 48.832C 254.069 51.612 255.391 55.0072 255.391 59.0176C 255.391 63.028 254.069 66.3548 251.426 68.998C 248.828 71.8691 244.772 73.3047 239.258 73.3047L 217.451 73.3047L 217.451 44.7988L 239.258 44.7988ZM 286.904 131L 301.191 131L 301.191 60.043L 286.904 60.043L 286.904 131ZM 286.904 45.6191L 301.191 45.6191L 301.191 31.332L 286.904 31.332L 286.904 45.6191ZM 320.127 131L 334.414 131L 334.414 88.7539C 334.414 83.7865 335.758 80.0039 338.447 77.4062C 341.09 74.763 344.463 73.4414 348.564 73.4414C 352.666 73.4414 356.016 74.763 358.613 77.4062C 361.257 80.0039 362.578 83.7865 362.578 88.7539L 362.578 131L 376.865 131L 376.865 83.832C 376.637 75.7201 374.108 69.5677 369.277 65.375C 364.401 61.2279 359.023 59.1543 353.145 59.1543C 345.534 59.1543 339.382 61.957 334.688 67.5625L 334.414 67.5625L 334.414 60.043L 320.127 60.043L 320.127 131ZM 432.578 131L 446.865 131L 446.865 82.5332C 446.774 73.8743 444.062 67.7676 438.73 64.2129C 433.398 60.7493 426.266 59.0632 417.334 59.1543C 406.761 58.972 398.763 62.4355 393.34 69.5449L 404.551 78.0898C 405.781 76.0391 407.467 74.5807 409.609 73.7148C 411.66 72.9857 414.463 72.6211 418.018 72.6211C 427.816 72.4388 432.669 75.4694 432.578 81.7129L 432.578 89.1641L 412.822 89.1641C 405.257 89.2552 399.515 91.306 395.596 95.3164C 391.676 99.2357 389.717 104.18 389.717 110.15C 389.717 116.394 391.973 121.521 396.484 125.531C 400.768 129.633 406.875 131.729 414.805 131.82C 419.635 131.82 423.418 131.228 426.152 130.043C 428.932 128.904 430.983 127.126 432.305 124.711L 432.578 124.711L 432.578 131ZM 432.578 106.049C 432.578 111.381 431.462 114.799 429.229 116.303C 426.768 117.807 422.552 118.513 416.582 118.422C 411.842 118.422 408.447 117.488 406.396 115.619C 404.255 113.933 403.184 111.882 403.184 109.467C 403.092 103.952 407.194 101.104 415.488 100.922L 432.578 100.922L 432.578 106.049ZM 465.322 131L 479.609 131L 479.609 88.2754C 479.701 83.0801 481.204 79.3203 484.121 76.9961C 486.719 74.6263 489.84 73.4414 493.486 73.4414C 496.722 73.4414 499.844 74.6263 502.852 76.9961L 513.242 64.623C 509.004 61.0684 504.036 59.2454 498.34 59.1543C 490.729 59.1543 484.577 61.957 479.883 67.5625L 479.609 67.5625L 479.609 60.043L 465.322 60.043L 465.322 131ZM 542.117 128.197L 538.221 140.092C 537.583 142.143 536.466 143.692 534.871 144.74C 533.276 145.743 531.544 146.244 529.676 146.244L 525.506 146.244L 525.506 159.711L 530.223 159.711C 534.643 159.711 538.608 158.731 542.117 156.771C 545.581 154.721 548.292 151.029 550.252 145.697L 580.809 60.043L 565.633 60.043L 548.885 109.74L 548.611 109.74L 531.795 60.043L 516.688 60.043L 542.117 128.197Z"/>
</defs>
</svg>
