<?xml version="1.0" encoding="utf-8"?>
<!-- Generator: Adobe Illustrator 21.0.2, SVG Export Plug-In . SVG Version: 6.00 Build 0)  -->
<svg version="1.1" id="Layer_1" xmlns="http://www.w3.org/2000/svg" xmlns:xlink="http://www.w3.org/1999/xlink" x="0px" y="0px"
	 viewBox="0 0 368.6 159.7" style="enable-background:new 0 0 368.6 159.7;" xml:space="preserve">
<style type="text/css">
	.st0{fill:#EE386E;}
	.st1{fill:#3E4051;}
</style>
<g>
	<path class="st0" d="M48,62.7v5.6h0.2c2.6-4.7,7-6.9,12.2-6.9c7.7,0,12.2,4.2,12.2,13.6v35.5H60.3v-33c0-4.8-1.6-6.7-5.2-6.7
		c-4.2,0-6.5,2.6-6.5,7.9v31.8H36.3V62.7H48z"/>
	<path class="st0" d="M98,61.5c14.8-0.3,18.9,8.5,18.9,25.2c0,16.4-4.8,25.2-18.9,25.2c-14.8,0.3-18.9-8.5-18.9-25.2
		C79.2,70.3,84,61.5,98,61.5z M98,103.5c5,0,6.6-4.9,6.6-16.8S103,69.9,98,69.9c-6,0-6.6,7-6.6,16.8C91.5,96.4,92,103.5,98,103.5z"
		/>
	<path class="st1" d="M124.5,63.4h5.3v7.4h0.2c2-5.2,6.4-8.5,11.9-8.5c0.6,0,1.2,0.1,1.9,0.3v5.3c-0.9-0.2-1.8-0.3-2.6-0.3
		c-5.9,0-11.4,4.3-11.4,13.4v29.5h-5.3L124.5,63.4"/>
	<path class="st1" d="M178.4,94.9c-0.8,10.1-6.3,16.7-15.2,16.7c-10,0-15.8-6.9-15.8-24.7c0-16.4,5.9-24.6,16.3-24.6
		c10.5,0,15.2,7.2,15.2,23v2H153v2.2c0,13.6,4.8,17.8,10.1,17.8c5.6,0,9.1-4,10-12.3L178.4,94.9L178.4,94.9z M173.1,82.7
		c-0.2-11.7-3.5-16-10.1-16s-9.9,4.3-10.1,16H173.1z"/>
	<path class="st1" d="M212.1,102.8h-0.2c-1.4,5.4-6,8.9-11.6,8.9c-10.4,0-15.1-8.4-15.1-24.7s4.7-24.6,15.1-24.6
		c5.9,0,9.9,3.2,11,8.2h0.2V47.1h5.3v63.5H212v-7.8H212.1z M201.2,107.2c5.4,0,10.3-2.8,10.3-20.3c0-17.4-4.9-20.2-10.3-20.2
		c-5.3,0-10.3,2.8-10.3,20.2C190.9,104.5,195.9,107.2,201.2,107.2z"/>
	<path class="st0" d="M226.1,46.4h12.3v10.5h-12.3V46.4z M226.1,62.7h12.3v47.9h-12.3V62.7z"/>
	<path class="st0" d="M247,62.7h11.7v5.6h0.2c2.6-4.7,7-6.9,12.2-6.9c7.7,0,12.2,4.2,12.2,13.6v35.5H271v-33c0-4.8-1.6-6.7-5.2-6.7
		c-4.2,0-6.5,2.6-6.5,7.9v31.8H247V62.7"/>
	<polyline class="st0" points="304.2,47.1 304.2,80.6 304.3,80.6 316.7,62.7 330.2,62.7 316.4,81.6 332.3,110.6 318.8,110.6 
		308.5,90.9 304.2,96.6 304.2,110.6 291.9,110.6 291.9,47.1 304.2,47.1 	"/>
</g>
<g>
	<g>
		<defs>
			<path id="SVGID_1_" d="M279.9,234.6c-0.7-0.4-1.4-0.7-2.1-0.9C278.5,233.9,279.2,234.2,279.9,234.6"/>
		</defs>
		<clipPath id="SVGID_2_">
			<use xlink:href="#SVGID_1_"  style="overflow:visible;"/>
		</clipPath>
	</g>
</g>
<g>
	<g>
		<defs>
			<path id="SVGID_3_" d="M297.8,254.5c-0.9-4.9-2.6-9.1-4.7-12.5C295.2,245.5,296.9,249.6,297.8,254.5"/>
		</defs>
		<clipPath id="SVGID_4_">
			<use xlink:href="#SVGID_3_"  style="overflow:visible;"/>
		</clipPath>
	</g>
</g>
<g>
	<g>
		<defs>
			<path id="SVGID_5_" d="M286,233.5c0.7,0.6,1.4,1.3,2.2,2.1C287.4,234.8,286.7,234.1,286,233.5"/>
		</defs>
		<clipPath id="SVGID_6_">
			<use xlink:href="#SVGID_5_"  style="overflow:visible;"/>
		</clipPath>
	</g>
</g>
</svg>
